<svg width="20" height="20" viewBox="0 0 20 20" fill="none" xmlns="http://www.w3.org/2000/svg">
<path d="M18.3333 4.75857V12.7419C18.3333 15.0419 16.4666 16.9086 14.1666 16.9086H5.83331C5.44998 16.9086 5.08331 16.8586 4.72498 16.7586C4.20831 16.6169 4.04164 15.9586 4.42498 15.5752L13.2833 6.71691C13.4666 6.53357 13.7416 6.49191 14 6.54191C14.2666 6.59191 14.5583 6.51691 14.7666 6.31691L16.9083 4.16691C17.6916 3.38357 18.3333 3.64191 18.3333 4.75857Z" fill="#7C5CFC"/>
<path d="M12.2001 6.13359L3.47508 14.8586C3.07508 15.2586 2.40841 15.1586 2.14175 14.6586C1.83341 14.0919 1.66675 13.4336 1.66675 12.7419V4.75859C1.66675 3.64193 2.30841 3.38359 3.09175 4.16693L5.24175 6.32526C5.56675 6.64193 6.10008 6.64193 6.42508 6.32526L9.40841 3.33359C9.73341 3.00859 10.2667 3.00859 10.5917 3.33359L12.2084 4.95026C12.5251 5.27526 12.5251 5.80859 12.2001 6.13359Z" fill="#7C5CFC"/>
</svg>
