<svg width="44" height="45" viewBox="0 0 44 45" fill="none" xmlns="http://www.w3.org/2000/svg">
<rect y="0.245361" width="44" height="44" rx="22" fill="#DDF4FF"/>
<path d="M19.8125 23.4954C20.0611 23.4954 20.2996 23.5941 20.4754 23.7699C20.6512 23.9458 20.75 24.1842 20.75 24.4329V26.3079C20.75 26.5565 20.6512 26.795 20.4754 26.9708C20.2996 27.1466 20.0611 27.2454 19.8125 27.2454C19.5639 27.2454 19.3254 27.1466 19.1496 26.9708C18.9738 26.795 18.875 26.5565 18.875 26.3079V24.4329C18.875 24.1842 18.9738 23.9458 19.1496 23.7699C19.3254 23.5941 19.5639 23.4954 19.8125 23.4954ZM25.125 24.4329C25.125 24.1842 25.0262 23.9458 24.8504 23.7699C24.6746 23.5941 24.4361 23.4954 24.1875 23.4954C23.9389 23.4954 23.7004 23.5941 23.5246 23.7699C23.3488 23.9458 23.25 24.1842 23.25 24.4329V26.3079C23.25 26.5565 23.3488 26.795 23.5246 26.9708C23.7004 27.1466 23.9389 27.2454 24.1875 27.2454C24.4361 27.2454 24.6746 27.1466 24.8504 26.9708C25.0262 26.795 25.125 26.5565 25.125 26.3079V24.4329Z" fill="#0969DA"/>
<path d="M21.825 14.4578C21.8875 14.5241 21.9462 14.5916 22 14.6628C22.0538 14.5916 22.1125 14.5241 22.175 14.4578C23.0263 13.5441 24.3463 13.3328 25.8538 13.5016C27.3913 13.6716 28.535 14.1603 29.2588 15.0766C29.9662 15.9716 30.125 17.0941 30.125 18.1828C30.125 18.8978 30.0588 19.6166 29.8075 20.2516L30.0175 21.2991L30.1 21.3403C30.671 21.6259 31.1512 22.0648 31.4868 22.6079C31.8224 23.1511 32.0001 23.7769 32 24.4153V25.9953C32 26.2953 31.8925 26.5428 31.805 26.7041C31.7137 26.8678 31.605 27.0203 31.4813 27.1616C31.2563 27.4241 30.9762 27.6778 30.725 27.8866C30.4073 28.1513 30.0769 28.4003 29.735 28.6328L29.7163 28.6453L29.7087 28.6503L29.6737 28.6728C29.4873 28.7956 29.2973 28.9128 29.1038 29.0241C28.72 29.2453 28.1675 29.5366 27.4838 29.8266C26.12 30.4053 24.195 30.9953 22 30.9953C19.805 30.9953 17.88 30.4053 16.5162 29.8266C15.961 29.5915 15.42 29.324 14.8962 29.0253C14.7027 28.914 14.5127 28.7969 14.3262 28.6741L14.2912 28.6491L14.2838 28.6453L14.265 28.6328C13.9236 28.4001 13.5932 28.1515 13.275 27.8878C13.004 27.6666 12.7512 27.4242 12.5188 27.1628C12.395 27.0217 12.2865 26.868 12.195 26.7041C12.0717 26.4879 12.0046 26.2442 12 25.9953V24.4153C11.9999 23.7769 12.1776 23.1511 12.5132 22.6079C12.8488 22.0648 13.329 21.6259 13.9 21.3403L13.9837 21.2991L14.1925 20.2516C13.9412 19.6166 13.875 18.8978 13.875 18.1828C13.875 17.0953 14.0338 15.9703 14.7413 15.0766C15.465 14.1603 16.6087 13.6716 18.1462 13.5016C19.6537 13.3341 20.9725 13.5441 21.825 14.4578ZM15.75 22.0253V27.3516C15.775 27.3678 15.8038 27.3828 15.8313 27.3991C16.1613 27.5891 16.6437 27.8441 17.2487 28.1016C18.4637 28.6166 20.1325 29.1203 22 29.1203C23.8675 29.1203 25.5375 28.6166 26.75 28.1016C27.265 27.8841 27.7662 27.6328 28.25 27.3516V22.0266L28.2213 21.8816C27.6088 22.1441 26.8775 22.2453 26.0625 22.2453C24.63 22.2453 23.4875 21.8353 22.675 21.0066C22.4069 20.7307 22.1797 20.418 22 20.0778C21.82 20.4141 21.5988 20.7278 21.325 21.0066C20.5125 21.8353 19.37 22.2453 17.9375 22.2453C17.1225 22.2453 16.3925 22.1428 15.78 21.8816L15.75 22.0253ZM23.5463 15.7366C23.2913 16.0091 23.0975 16.5841 23.2437 17.7541C23.3575 18.6616 23.6225 19.2916 24.0162 19.6953C24.39 20.0753 24.9963 20.3703 26.0638 20.3703C27.2163 20.3703 27.6637 20.1216 27.8663 19.8953C28.09 19.6453 28.2513 19.1728 28.2513 18.1828C28.2513 17.2266 28.0975 16.6303 27.7887 16.2391C27.4975 15.8691 26.9225 15.5066 25.6475 15.3641C24.3425 15.2191 23.7875 15.4778 23.5463 15.7366ZM20.4563 15.7366C20.215 15.4778 19.66 15.2191 18.355 15.3641C17.08 15.5066 16.505 15.8691 16.2137 16.2391C15.905 16.6303 15.7512 17.2266 15.7512 18.1828C15.7512 19.1728 15.9125 19.6453 16.1363 19.8953C16.3387 20.1216 16.7863 20.3703 17.9387 20.3703C19.0062 20.3703 19.6125 20.0753 19.9862 19.6953C20.38 19.2916 20.645 18.6616 20.7587 17.7541C20.905 16.5841 20.7113 16.0091 20.4563 15.7366Z" fill="#0969DA"/>
</svg>
