<svg width="44" height="42" viewBox="0 0 44 42" fill="none" xmlns="http://www.w3.org/2000/svg">
<rect y="0.245361" width="44" height="41.5" rx="20.75" fill="#FFF8C5"/>
<path d="M12 14.4329C12 13.2254 12.98 12.2454 14.1875 12.2454H29.8125C31.02 12.2454 32 13.2254 32 14.4329V16.3079C32 16.888 31.7695 17.4444 31.3593 17.8547C30.9491 18.2649 30.3927 18.4954 29.8125 18.4954H14.1875C13.6073 18.4954 13.0509 18.2649 12.6407 17.8547C12.2305 17.4444 12 16.888 12 16.3079V14.4329ZM14.1875 19.7454C14.4361 19.7454 14.6746 19.8441 14.8504 20.0199C15.0262 20.1958 15.125 20.4342 15.125 20.6829V27.5579C15.125 27.7304 15.265 27.8704 15.4375 27.8704H28.5625C28.6454 27.8704 28.7249 27.8374 28.7835 27.7788C28.8421 27.7202 28.875 27.6407 28.875 27.5579V20.6829C28.875 20.4342 28.9738 20.1958 29.1496 20.0199C29.3254 19.8441 29.5639 19.7454 29.8125 19.7454C30.0611 19.7454 30.2996 19.8441 30.4754 20.0199C30.6512 20.1958 30.75 20.4342 30.75 20.6829V27.5579C30.75 28.138 30.5195 28.6944 30.1093 29.1047C29.6991 29.5149 29.1427 29.7454 28.5625 29.7454H15.4375C14.8573 29.7454 14.3009 29.5149 13.8907 29.1047C13.4805 28.6944 13.25 28.138 13.25 27.5579V20.6829C13.25 20.4342 13.3488 20.1958 13.5246 20.0199C13.7004 19.8441 13.9389 19.7454 14.1875 19.7454ZM14.1875 14.1204C14.1046 14.1204 14.0251 14.1533 13.9665 14.2119C13.9079 14.2705 13.875 14.35 13.875 14.4329V16.3079C13.875 16.4804 14.015 16.6204 14.1875 16.6204H29.8125C29.8954 16.6204 29.9749 16.5874 30.0335 16.5288C30.0921 16.4702 30.125 16.3907 30.125 16.3079V14.4329C30.125 14.35 30.0921 14.2705 30.0335 14.2119C29.9749 14.1533 29.8954 14.1204 29.8125 14.1204H14.1875ZM19.8125 20.9954H24.1875C24.4361 20.9954 24.6746 21.0941 24.8504 21.2699C25.0262 21.4458 25.125 21.6842 25.125 21.9329C25.125 22.1815 25.0262 22.42 24.8504 22.5958C24.6746 22.7716 24.4361 22.8704 24.1875 22.8704H19.8125C19.5639 22.8704 19.3254 22.7716 19.1496 22.5958C18.9738 22.42 18.875 22.1815 18.875 21.9329C18.875 21.6842 18.9738 21.4458 19.1496 21.2699C19.3254 21.0941 19.5639 20.9954 19.8125 20.9954Z" fill="#9A6700"/>
</svg>
