<svg width="57" height="45" viewBox="0 0 57 45" fill="none" xmlns="http://www.w3.org/2000/svg">
<rect y="0.245361" width="56.5" height="44" rx="22" fill="#FBEFFF"/>
<path d="M12 26.3079C12 25.1004 12.98 24.1204 14.1875 24.1204H29.8125C31.02 24.1204 32 25.1004 32 26.3079V30.0579C32 30.638 31.7695 31.1944 31.3593 31.6047C30.9491 32.0149 30.3927 32.2454 29.8125 32.2454H14.1875C13.6073 32.2454 13.0509 32.0149 12.6407 31.6047C12.2305 31.1944 12 30.638 12 30.0579V26.3079ZM14.5 14.4329C14.5 13.2254 15.48 12.2454 16.6875 12.2454H27.3125C28.52 12.2454 29.5 13.2254 29.5 14.4329V20.6829C29.5 21.263 29.2695 21.8194 28.8593 22.2297C28.4491 22.6399 27.8927 22.8704 27.3125 22.8704H16.6875C16.1073 22.8704 15.5509 22.6399 15.1407 22.2297C14.7305 21.8194 14.5 21.263 14.5 20.6829V14.4329ZM16.6875 14.1204C16.6046 14.1204 16.5251 14.1533 16.4665 14.2119C16.4079 14.2705 16.375 14.35 16.375 14.4329V20.6829C16.375 20.8554 16.515 20.9954 16.6875 20.9954H27.3125C27.3954 20.9954 27.4749 20.9624 27.5335 20.9038C27.5921 20.8452 27.625 20.7657 27.625 20.6829V14.4329C27.625 14.35 27.5921 14.2705 27.5335 14.2119C27.4749 14.1533 27.3954 14.1204 27.3125 14.1204H16.6875ZM14.1875 25.9954C14.1046 25.9954 14.0251 26.0283 13.9665 26.0869C13.9079 26.1455 13.875 26.225 13.875 26.3079V30.0579C13.875 30.2304 14.015 30.3704 14.1875 30.3704H29.8125C29.8954 30.3704 29.9749 30.3374 30.0335 30.2788C30.0921 30.2202 30.125 30.1407 30.125 30.0579V26.3079C30.125 26.225 30.0921 26.1455 30.0335 26.0869C29.9749 26.0283 29.8954 25.9954 29.8125 25.9954H14.1875Z" fill="#8250DF"/>
<path d="M37 13.1829C37 12.9342 37.0988 12.6958 37.2746 12.5199C37.4504 12.3441 37.6889 12.2454 37.9375 12.2454H43.5625C43.8111 12.2454 44.0496 12.3441 44.2254 12.5199C44.4012 12.6958 44.5 12.9342 44.5 13.1829C44.5 13.4315 44.4012 13.67 44.2254 13.8458C44.0496 14.0216 43.8111 14.1204 43.5625 14.1204H37.9375C37.6889 14.1204 37.4504 14.0216 37.2746 13.8458C37.0988 13.67 37 13.4315 37 13.1829ZM32 13.1829C32 12.9342 32.0988 12.6958 32.2746 12.5199C32.4504 12.3441 32.6889 12.2454 32.9375 12.2454H33.5625C33.8111 12.2454 34.0496 12.3441 34.2254 12.5199C34.4012 12.6958 34.5 12.9342 34.5 13.1829C34.5 13.4315 34.4012 13.67 34.2254 13.8458C34.0496 14.0216 33.8111 14.1204 33.5625 14.1204H32.9375C32.6889 14.1204 32.4504 14.0216 32.2746 13.8458C32.0988 13.67 32 13.4315 32 13.1829Z" fill="#8250DF"/>
</svg>
