<svg width="44" height="45" viewBox="0 0 44 45" fill="none" xmlns="http://www.w3.org/2000/svg">
<rect y="0.245361" width="44" height="44" rx="22" fill="#DAFBE1"/>
<path d="M22.6663 12.4117L29.2288 14.5117C29.6704 14.6529 30.0558 14.9309 30.3293 15.3054C30.6027 15.6799 30.75 16.1317 30.75 16.5954V20.9954C30.75 22.9529 30.35 24.9729 29.1212 26.8479C27.8925 28.7204 25.89 30.3642 22.8313 31.6667C22.5684 31.7786 22.2857 31.8363 22 31.8363C21.7143 31.8363 21.4316 31.7786 21.1687 31.6667C18.11 30.3642 16.1075 28.7204 14.8787 26.8479C13.65 24.9729 13.25 22.9529 13.25 20.9954V16.5954C13.25 16.1317 13.3973 15.6799 13.6707 15.3054C13.9442 14.9309 14.3296 14.6529 14.7713 14.5117L21.3337 12.4117C21.7671 12.2729 22.2329 12.2729 22.6663 12.4117ZM21.9037 14.1979L21.905 14.1992L15.3425 16.2992C15.2797 16.3194 15.2249 16.3589 15.1858 16.4121C15.1468 16.4653 15.1255 16.5294 15.125 16.5954V20.9954C15.125 22.6954 15.4688 24.3279 16.4462 25.8192C17.4262 27.3117 19.0975 28.7467 21.9037 29.9417C21.9342 29.9547 21.9669 29.9614 22 29.9614C22.0331 29.9614 22.0658 29.9547 22.0962 29.9417C24.9025 28.7454 26.5737 27.3129 27.5538 25.8204C28.5312 24.3279 28.875 22.6929 28.875 20.9954V16.5954C28.875 16.5292 28.8539 16.4647 28.8148 16.4112C28.7757 16.3577 28.7206 16.3181 28.6575 16.2979L22.095 14.1979C22.0328 14.1779 21.9659 14.1779 21.9037 14.1979ZM23.875 20.3704C23.875 21.0404 23.5175 21.6604 22.9375 21.9954V25.0579C22.9375 25.3066 22.8387 25.545 22.6629 25.7208C22.4871 25.8966 22.2486 25.9954 22 25.9954C21.7514 25.9954 21.5129 25.8966 21.3371 25.7208C21.1613 25.545 21.0625 25.3066 21.0625 25.0579V21.9954C20.7775 21.8309 20.5408 21.5942 20.3763 21.3093C20.2117 21.0243 20.1251 20.701 20.125 20.3719C20.1249 20.0428 20.2115 19.7195 20.376 19.4345C20.5404 19.1495 20.777 18.9128 21.062 18.7481C21.3469 18.5835 21.6702 18.4968 21.9992 18.4966C22.3283 18.4965 22.6516 18.583 22.9367 18.7474C23.2218 18.9118 23.4586 19.1483 23.6233 19.4332C23.788 19.7181 23.8748 20.0413 23.875 20.3704Z" fill="#1A7F37"/>
</svg>
