<svg width="50" height="50" viewBox="0 0 50 50" fill="none" xmlns="http://www.w3.org/2000/svg">
<path d="M24.9998 4.16675C25.7818 4.16675 26.5526 4.20911 27.3123 4.29383C27.5843 4.32393 27.8476 4.40729 28.0874 4.53916C28.3271 4.67104 28.5385 4.84883 28.7095 5.06241C28.8805 5.27598 29.0078 5.52115 29.0841 5.78391C29.1603 6.04668 29.1841 6.32189 29.154 6.59383C29.1239 6.86578 29.0405 7.12913 28.9087 7.36886C28.7768 7.60859 28.599 7.82 28.3854 7.99101C28.1719 8.16203 27.9267 8.2893 27.6639 8.36556C27.4012 8.44183 27.126 8.46559 26.854 8.4355C23.4208 8.05142 19.953 8.74371 16.9304 10.4166C13.9078 12.0895 11.4797 14.6603 9.98206 17.7734C8.48438 20.8865 7.99109 24.3881 8.57045 27.7939C9.1498 31.1996 10.7732 34.3411 13.216 36.784C15.6588 39.2268 18.8003 40.8501 22.206 41.4295C25.6118 42.0088 29.1134 41.5155 32.2265 40.0179C35.3396 38.5202 37.9104 36.0921 39.5833 33.0695C41.2562 30.0469 41.9485 26.5792 41.5644 23.1459C41.5343 22.874 41.5581 22.5988 41.6344 22.336C41.7106 22.0732 41.8379 21.8281 42.0089 21.6145C42.3543 21.1832 42.8569 20.9067 43.4061 20.8459C43.9553 20.7851 44.5062 20.945 44.9375 21.2904C45.1511 21.4614 45.3289 21.6728 45.4608 21.9126C45.5926 22.1523 45.676 22.4156 45.7061 22.6876C45.7894 23.4473 45.8318 24.2181 45.8332 25.0001C45.8332 36.5063 36.5061 45.8334 24.9998 45.8334C13.4936 45.8334 4.1665 36.5063 4.1665 25.0001C4.1665 13.4938 13.4936 4.16675 24.9998 4.16675ZM24.9332 16.4105C25.0705 16.9453 24.9898 17.5128 24.709 17.9882C24.4281 18.4636 23.97 18.8081 23.4353 18.9459C21.9662 19.3307 20.6874 20.2369 19.8374 21.4953C18.9874 22.7537 18.6243 24.2784 18.8159 25.7849C19.0074 27.2913 19.7406 28.6766 20.8785 29.6823C22.0163 30.6879 23.4813 31.2452 24.9998 31.2501C26.3859 31.2507 27.7328 30.7905 28.8288 29.9419C29.9247 29.0934 30.7075 27.9046 31.054 26.5626C31.2017 26.0383 31.5488 25.5927 32.021 25.3213C32.4932 25.0498 33.0529 24.9741 33.5803 25.1103C34.1076 25.2465 34.5607 25.5838 34.8424 26.0499C35.1241 26.5161 35.212 27.074 35.0873 27.6042C34.4482 30.0541 32.9391 32.1875 30.8418 33.6059C28.7446 35.0242 26.2027 35.6305 23.691 35.3115C21.1793 34.9925 18.8697 33.7701 17.1936 31.8724C15.5175 29.9748 14.5896 27.5319 14.5832 25.0001C14.5828 22.6905 15.35 20.4462 16.7642 18.6202C18.1784 16.7942 20.1594 15.49 22.3957 14.9126C22.6606 14.8443 22.9365 14.8289 23.2074 14.8672C23.4783 14.9055 23.7391 14.9968 23.9747 15.1359C24.2103 15.275 24.4163 15.4592 24.5807 15.6779C24.7452 15.8966 24.8649 16.1455 24.9332 16.4105ZM38.5498 4.43133C38.9301 4.589 39.2551 4.85578 39.4839 5.19802C39.7127 5.54025 39.8349 5.94259 39.8353 6.35425V10.1667H43.6457C44.0577 10.1668 44.4604 10.2891 44.8029 10.518C45.1454 10.7469 45.4124 11.0723 45.57 11.4529C45.7276 11.8335 45.7689 12.2523 45.6886 12.6564C45.6082 13.0605 45.4099 13.4316 45.1186 13.723L37.7498 21.0834C37.3592 21.4741 36.8294 21.6937 36.2769 21.6938H31.2498L27.4415 25.5042C27.0506 25.8952 26.5204 26.1148 25.9675 26.1148C25.4147 26.1148 24.8845 25.8952 24.4936 25.5042C24.1027 25.1133 23.8831 24.5831 23.8831 24.0303C23.8831 23.4774 24.1027 22.9473 24.4936 22.5563L28.304 18.7501V13.7209C28.3041 13.1684 28.5237 12.6386 28.9144 12.248L36.279 4.88133C36.5704 4.5898 36.9416 4.39124 37.3458 4.31077C37.7501 4.2303 38.1691 4.27153 38.5498 4.42925M35.6686 11.3813L32.4707 14.5834V17.5292H35.4165L38.6165 14.3313H37.7519C37.1994 14.3313 36.6695 14.1118 36.2788 13.7211C35.8881 13.3304 35.6686 12.8005 35.6686 12.248V11.3813Z" fill="#0A52E2"/>
</svg>
