<svg width="50" height="50" viewBox="0 0 50 50" fill="none" xmlns="http://www.w3.org/2000/svg">
<path d="M45.7188 21.875L40.625 9.375H43.75V6.25H28.125V3.125H25V6.25H9.375V9.375H12.5L7.4375 21.875H6.25V25H6.71875C7.20625 26.5562 8.19687 27.9062 9.53125 28.8437C10.8489 29.7992 12.4349 30.3138 14.0625 30.3138C15.6901 30.3138 17.2761 29.7992 18.5937 28.8437C19.9293 27.9005 20.9262 26.553 21.4375 25H21.875V21.875H20.4688L15.25 9.375H25V34.375H18.75L17.5312 34.9375L11.2812 42.7812L12.5 45.3125H40.625L41.8438 42.7812L35.5938 34.9375L34.375 34.375H28.125V9.375H37.9062L32.6875 21.875H31.25V25H31.7187C32.2298 26.5483 33.2162 27.8959 34.5375 28.8511C35.8588 29.8064 37.4477 30.3206 39.0781 30.3206C40.7086 30.3206 42.2975 29.8064 43.6187 28.8511C44.94 27.8959 45.9264 26.5483 46.4375 25H46.875V21.875H45.7188ZM16.3125 26.5938C15.6243 26.9776 14.8505 27.1819 14.0625 27.1875C13.2842 27.1834 12.5201 26.9789 11.8438 26.5938C11.1565 26.2124 10.5762 25.6643 10.1562 25H17.9688C17.5575 25.6605 16.9883 26.2082 16.3125 26.5938ZM17.0937 21.875H10.8438L13.9687 14.375L17.0937 21.875ZM33.625 37.5L37.5 42.1875H15.625L19.5 37.5H33.625ZM39.1875 14.4375L42.3125 21.9375H36.0625L39.1875 14.4375ZM41.3125 26.6562C40.6299 27.0537 39.8523 27.2588 39.0625 27.25C38.2822 27.2611 37.5142 27.0556 36.8438 26.6562C36.1531 26.252 35.5733 25.683 35.1562 25H42.9688C42.5814 25.6953 42.0078 26.2689 41.3125 26.6562Z" fill="#0A52E2"/>
</svg>
