<svg width="50" height="50" viewBox="0 0 50 50" fill="none" xmlns="http://www.w3.org/2000/svg">
<path d="M10.6453 3.7594L8.44531 5.95628L11.7188 9.22815L13.9156 7.03128L10.6453 3.7594ZM39.3563 3.7594L36.0828 7.03128L38.2812 9.22815L41.5531 5.95784L39.3563 3.7594ZM25 4.7344C24.4844 4.74065 23.9625 4.77034 23.4375 4.8344C23.4219 4.8344 23.4062 4.83128 23.3906 4.8344C17.0531 5.56096 12.0094 10.6813 11.1328 16.9907C10.4328 22.0688 12.5266 26.6735 16.0156 29.6391C17.4428 30.8571 18.4082 32.5286 18.75 34.3735V43.7485H22.3125C22.8562 44.6813 23.8484 45.311 25 45.311C26.1516 45.311 27.1437 44.6813 27.6875 43.7485H31.25V37.4985H31.3969V35.6422C31.3969 33.3516 32.5875 31.0422 34.5219 29.2469C37.1094 26.6563 39.0625 22.9766 39.0625 18.75C39.0625 11.0313 32.7094 4.66252 25 4.7344ZM25 7.8594C31.0391 7.77503 35.9375 12.7188 35.9375 18.75C35.9375 22.0219 34.4219 24.9032 32.3234 27L32.3734 27.05C30.2881 28.973 28.9396 31.5638 28.5609 34.375H21.7266C21.3828 31.6969 20.2344 29.1047 18.0641 27.2453C15.3031 24.9016 13.6578 21.3703 14.2078 17.3828C14.8906 12.461 18.8844 8.50315 23.7781 7.96096C24.1822 7.90463 24.5891 7.87125 24.9969 7.86096L25 7.8594ZM3.125 18.75V21.875H7.8125V18.75H3.125ZM42.1875 18.75V21.875H46.875V18.75H42.1875ZM11.7188 31.3969L8.44688 34.6672L10.6453 36.8657L13.9141 33.5938L11.7188 31.3969ZM38.2812 31.3969L36.0844 33.5938L39.3547 36.8657L41.5531 34.6672L38.2812 31.3969ZM21.875 37.5H28.125V40.625H21.875V37.5Z" fill="#0A52E2"/>
</svg>
