<svg width="75" height="72" viewBox="0 0 75 72" fill="none" xmlns="http://www.w3.org/2000/svg">
<g clip-path="url(#clip0_9_26817)">
<path fill-rule="evenodd" clip-rule="evenodd" d="M47.8844 23.9626C47.9608 24.4132 48.0289 24.801 48.066 25.0058C48.2946 26.2512 48.487 29.4135 49.3686 31.5642C50.0407 33.2052 51.1149 34.264 52.7485 33.8827C54.2333 33.536 55.1576 32.0557 55.6024 30.0092C56.5597 25.6048 55.4053 18.5684 54.5076 16.5328C54.4095 16.3106 54.1507 16.2099 53.9286 16.308C53.7074 16.4056 53.6067 16.6643 53.7048 16.8865C54.5658 18.8402 55.6637 25.5947 54.7448 29.8231C54.3854 31.4757 53.748 32.748 52.5484 33.0278C51.3647 33.3044 50.6682 32.4213 50.181 31.2317C49.3225 29.1388 49.1515 26.06 48.9296 24.8472C48.7901 24.087 48.3399 21.1726 48.2412 20.9321C48.1177 20.6309 47.8622 20.6391 47.7786 20.6481C47.7138 20.655 47.3928 20.7102 47.3782 21.109C47.1672 26.7949 42.9079 35.3741 36.6429 41.117C30.4331 46.8096 22.2228 49.713 13.9975 44.0661C13.7974 43.9293 13.5239 43.9802 13.3866 44.1793C13.2498 44.3793 13.3008 44.6528 13.5008 44.7896C22.1192 50.7062 30.7302 47.7282 37.2358 41.7647C42.7189 36.7388 46.6845 29.59 47.8844 23.9626Z" fill="#0D121F"/>
<path fill-rule="evenodd" clip-rule="evenodd" d="M14.2161 44.6631C15.2476 44.5782 16.2774 44.5264 17.3029 44.3613C20.0351 43.9218 22.7809 42.8864 24.9969 41.2124C25.1905 41.0655 25.2282 40.7903 25.0828 40.5972C24.9358 40.4036 24.6607 40.3659 24.4676 40.5113C22.3654 42.1014 19.7558 43.0774 17.1636 43.4941C15.9897 43.6826 14.8088 43.7205 13.6274 43.8332C13.5686 43.8396 13.0537 43.8729 12.947 43.9098C12.698 43.9942 12.6488 44.1882 12.6376 44.2809C12.6272 44.3582 12.6333 44.4533 12.6836 44.5594C12.7253 44.6463 12.8432 44.7925 13.0424 44.9546C13.679 45.4756 15.3381 46.4778 15.593 46.6712C18.5156 48.8869 20.8625 51.4388 23.4006 54.0638C23.5697 54.2374 23.8481 54.2425 24.0223 54.0743C24.1964 53.9062 24.2004 53.6283 24.0323 53.4542C21.4623 50.7958 19.0819 48.2148 16.1236 45.9726C15.9488 45.8391 14.9401 45.1533 14.2161 44.6631Z" fill="#0D121F"/>
</g>
<defs>
<clipPath id="clip0_9_26817">
<rect width="57.0685" height="50.03" fill="white" transform="translate(74.0886 45.3685) rotate(153.036)"/>
</clipPath>
</defs>
</svg>
