<svg width="40" height="40" viewBox="0 0 40 40" fill="none" xmlns="http://www.w3.org/2000/svg">
<path d="M29.9929 20.2391C29.9943 19.5589 29.9354 18.8799 29.8168 18.2097H20.2083V22.0552H25.7108C25.598 22.6696 25.3594 23.2552 25.0095 23.7768C24.6595 24.2983 24.2053 24.7449 23.6745 25.0897V27.585H26.9571C27.9595 26.6371 28.7477 25.4934 29.2706 24.228C29.7936 22.9626 30.0397 21.6036 29.9929 20.2391Z" fill="#4285F4"/>
<path d="M20.1859 29.9962C22.6679 30.0647 25.083 29.2025 26.9389 27.5856L23.6562 25.0903C22.8657 25.5863 21.9703 25.8992 21.0379 26.0054C20.1056 26.1115 19.1608 26.008 18.2754 25.7028C17.3899 25.3976 16.587 24.8987 15.9276 24.2439C15.2683 23.5891 14.7697 22.7957 14.4699 21.9238H11.0825V24.4958C11.9309 26.1495 13.2314 27.5396 14.8389 28.5109C16.4463 29.4822 18.2976 29.9964 20.1859 29.9962Z" fill="#34A853"/>
<path d="M14.4672 21.9152C14.0405 20.675 14.0405 19.3318 14.4672 18.0916V15.517H11.0833C10.3709 16.9085 10 18.4438 10 20.0007C10 21.5576 10.3709 23.093 11.0833 24.4845L14.4672 21.9152Z" fill="#FBBC04"/>
<path d="M20.1988 13.9542C21.6531 13.931 23.0586 14.4686 24.1124 15.4512L27.0252 12.6C25.1774 10.9026 22.7317 9.97123 20.1995 10.0007C18.3085 9.99969 16.4545 10.5141 14.8446 11.4863C13.2346 12.4586 11.9321 13.8505 11.0825 15.5065L14.4712 18.0784C14.8668 16.8906 15.6319 15.8541 16.6592 15.1144C17.6864 14.3747 18.9243 13.969 20.1988 13.9542Z" fill="#EA4335"/>
</svg>
