<svg width="134" height="30" viewBox="0 0 134 30" fill="none" xmlns="http://www.w3.org/2000/svg">
<circle cx="18.3157" cy="8.68421" r="5.68421" fill="#0A52E2"/>
<path fill-rule="evenodd" clip-rule="evenodd" d="M6 3C2.68629 3 0 5.68629 0 9C0 12.3137 2.68629 15 6 15H11.3685V3H6Z" fill="#0A52E2"/>
<circle cx="5.68421" cy="21.3152" r="5.68421" fill="#0A52E2"/>
<path fill-rule="evenodd" clip-rule="evenodd" d="M18 27C21.3137 27 24 24.3137 24 21C24 17.6863 21.3137 15 18 15L12.6315 15L12.6315 27L18 27Z" fill="#0A52E2"/>
<path d="M45.128 23.788C43.816 23.788 42.592 23.572 41.456 23.14C40.336 22.708 39.36 22.1 38.528 21.316C37.712 20.532 37.072 19.612 36.608 18.556C36.16 17.5 35.936 16.348 35.936 15.1C35.936 13.852 36.16 12.7 36.608 11.644C37.072 10.588 37.72 9.668 38.552 8.884C39.384 8.1 40.36 7.492 41.48 7.06C42.6 6.628 43.816 6.412 45.128 6.412C46.456 6.412 47.672 6.628 48.776 7.06C49.896 7.492 50.864 8.1 51.68 8.884C52.512 9.652 53.16 10.564 53.624 11.62C54.088 12.676 54.32 13.836 54.32 15.1C54.32 16.348 54.088 17.508 53.624 18.58C53.16 19.636 52.512 20.556 51.68 21.34C50.864 22.108 49.896 22.708 48.776 23.14C47.672 23.572 46.456 23.788 45.128 23.788ZM50.624 27.364C49.968 27.364 49.344 27.292 48.752 27.148C48.176 27.004 47.6 26.772 47.024 26.452C46.464 26.132 45.872 25.7 45.248 25.156C44.64 24.612 43.976 23.94 43.256 23.14L47.336 22.108C47.768 22.7 48.168 23.172 48.536 23.524C48.904 23.876 49.256 24.124 49.592 24.268C49.944 24.412 50.312 24.484 50.696 24.484C51.72 24.484 52.632 24.068 53.432 23.236L55.16 25.3C54.024 26.676 52.512 27.364 50.624 27.364ZM45.128 20.476C45.88 20.476 46.568 20.348 47.192 20.092C47.832 19.836 48.392 19.468 48.872 18.988C49.352 18.508 49.72 17.94 49.976 17.284C50.248 16.612 50.384 15.884 50.384 15.1C50.384 14.3 50.248 13.572 49.976 12.916C49.72 12.26 49.352 11.692 48.872 11.212C48.392 10.732 47.832 10.364 47.192 10.108C46.568 9.852 45.88 9.724 45.128 9.724C44.376 9.724 43.68 9.852 43.04 10.108C42.4 10.364 41.84 10.732 41.36 11.212C40.896 11.692 40.528 12.26 40.256 12.916C40 13.572 39.872 14.3 39.872 15.1C39.872 15.884 40 16.612 40.256 17.284C40.528 17.94 40.896 18.508 41.36 18.988C41.84 19.468 42.4 19.836 43.04 20.092C43.68 20.348 44.376 20.476 45.128 20.476ZM57.242 23.5V6.7H64.514C66.018 6.7 67.314 6.948 68.402 7.444C69.49 7.924 70.33 8.62 70.922 9.532C71.514 10.444 71.81 11.532 71.81 12.796C71.81 14.044 71.514 15.124 70.922 16.036C70.33 16.932 69.49 17.62 68.402 18.1C67.314 18.58 66.018 18.82 64.514 18.82H59.402L61.13 17.116V23.5H57.242ZM67.922 23.5L63.722 17.404H67.874L72.122 23.5H67.922ZM61.13 17.548L59.402 15.724H64.298C65.498 15.724 66.394 15.468 66.986 14.956C67.578 14.428 67.874 13.708 67.874 12.796C67.874 11.868 67.578 11.148 66.986 10.636C66.394 10.124 65.498 9.868 64.298 9.868H59.402L61.13 8.02V17.548ZM89.7993 23.788C88.4713 23.788 87.2473 23.58 86.1273 23.164C85.0233 22.732 84.0553 22.124 83.2233 21.34C82.4073 20.556 81.7673 19.636 81.3033 18.58C80.8553 17.524 80.6313 16.364 80.6313 15.1C80.6313 13.836 80.8553 12.676 81.3033 11.62C81.7673 10.564 82.4153 9.644 83.2473 8.86C84.0793 8.076 85.0553 7.476 86.1753 7.06C87.2953 6.628 88.5273 6.412 89.8713 6.412C91.3593 6.412 92.6953 6.66 93.8793 7.156C95.0793 7.652 96.0873 8.372 96.9033 9.316L94.4073 11.62C93.7993 10.98 93.1353 10.508 92.4153 10.204C91.6953 9.884 90.9113 9.724 90.0633 9.724C89.2473 9.724 88.5033 9.852 87.8313 10.108C87.1593 10.364 86.5753 10.732 86.0793 11.212C85.5993 11.692 85.2233 12.26 84.9513 12.916C84.6953 13.572 84.5673 14.3 84.5673 15.1C84.5673 15.884 84.6953 16.604 84.9513 17.26C85.2233 17.916 85.5993 18.492 86.0793 18.988C86.5753 19.468 87.1513 19.836 87.8073 20.092C88.4793 20.348 89.2153 20.476 90.0153 20.476C90.7833 20.476 91.5273 20.356 92.2473 20.116C92.9833 19.86 93.6953 19.436 94.3833 18.844L96.5913 21.652C95.6793 22.34 94.6153 22.868 93.3993 23.236C92.1993 23.604 90.9993 23.788 89.7993 23.788ZM93.0393 21.148V14.836H96.5913V21.652L93.0393 21.148ZM103.779 13.468H111.867V16.492H103.779V13.468ZM104.067 20.38H113.211V23.5H100.203V6.7H112.899V9.82H104.067V20.38ZM116.305 23.5V6.7H119.521L129.433 18.796H127.872V6.7H131.713V23.5H128.521L118.585 11.404H120.145V23.5H116.305Z" fill="#0C1A38"/>
</svg>
